<svg width="36" height="36" viewBox="0 0 37 35" fill="none" xmlns="http://www.w3.org/2000/svg">
<path d="M15.331 8.73633C15.331 8.73633 14.8462 10.1375 14.1071 10.5942C13.551 10.9378 13.1278 10.9098 12.4776 10.9775C11.9758 11.0297 11.1857 10.9845 11.1857 10.9845M15.5035 5.67428C16.2475 5.14119 16.7703 4.88343 17.6827 4.81203C18.7932 4.72513 19.5927 4.87382 20.4174 5.62259C21.4483 6.55866 21.3823 7.67688 21.3338 9.06855C21.2936 10.2215 21.033 10.8743 20.5234 11.9092C19.6076 13.7688 18.5787 14.647 16.7736 15.6659C15.1466 16.5843 14.0295 16.966 12.1614 16.937C10.8029 16.9159 9.97667 16.7926 8.7669 16.1742C7.7391 15.6487 7.09218 15.2807 6.47907 14.3026C5.72337 13.0971 5.33311 12.001 5.916 10.7031C6.29461 9.8601 6.73742 9.39016 7.58777 9.02827C8.51742 8.63262 10.1744 9.0789 10.1744 9.0789C10.1744 9.0789 11.4967 9.21418 12.26 8.92377C13.358 8.50607 13.5552 7.62621 14.3851 6.79479C14.8218 6.3572 15.0009 6.03439 15.5035 5.67428Z" stroke="#621E06" stroke-width="1.83554" stroke-linecap="round"/>
<path d="M11.7589 19.9719C11.7589 19.9719 10.6804 20.9892 9.8138 21.0518C9.16176 21.0989 8.79966 20.8781 8.19203 20.637C7.7231 20.4509 7.04376 20.045 7.04376 20.045M13.3296 17.3377C14.2359 17.2098 14.8186 17.2234 15.6604 17.5826C16.6849 18.0198 17.3247 18.5218 17.7089 19.5673C18.1892 20.8744 17.6129 21.8349 16.9255 23.0459C16.356 24.0492 15.8228 24.5071 14.8918 25.1884C13.2191 26.4126 11.9005 26.7145 9.82878 26.7818C7.96142 26.8424 6.79456 26.6634 5.15223 25.7727C3.9579 25.1249 3.28269 24.6331 2.49681 23.5247C1.82914 22.5831 1.42619 21.9573 1.33565 20.8066C1.22406 19.3882 1.3857 18.2359 2.50332 17.3555C3.22927 16.7836 3.83936 16.5721 4.76062 16.6451C5.7678 16.7249 7.02979 17.8877 7.02979 17.8877C7.02979 17.8877 8.1391 18.6199 8.95017 18.716C10.1167 18.8542 10.6989 18.1656 11.8195 17.813C12.4092 17.6274 12.7174 17.4242 13.3296 17.3377Z" stroke="#621E06" stroke-width="1.83554" stroke-linecap="round"/>
<path d="M19.4238 28.8588C19.4238 28.8588 20.6611 28.2591 21.4451 28.445C22.035 28.5849 22.2938 28.881 22.7642 29.2635C23.1272 29.5586 23.6152 30.1068 23.6152 30.1068M17.301 30.7517C16.4637 30.6126 15.952 30.4384 15.3074 29.8862C14.5228 29.2143 14.0966 28.5921 14.0478 27.5603C13.9868 26.2704 14.764 25.5811 15.7092 24.7012C16.4922 23.9723 17.0915 23.7156 18.1047 23.3721C19.9251 22.7549 21.1756 22.8548 23.027 23.3721C24.6957 23.8383 25.6781 24.3215 26.8829 25.5667C27.7591 26.4722 28.2195 27.0952 28.6061 28.2944C28.9346 29.3132 29.1168 29.979 28.8766 31.0222C28.5804 32.3079 28.1167 33.2822 26.8829 33.7499C26.0815 34.0537 25.483 34.071 24.6883 33.7499C23.8196 33.3989 23.027 32.019 23.027 32.019C23.027 32.019 22.2495 31.0625 21.5588 30.7517C20.5653 30.3047 19.8586 30.7517 18.7692 30.7517C18.1958 30.7517 17.8666 30.8456 17.301 30.7517Z" stroke="#621E06" stroke-width="1.83554" stroke-linecap="round"/>
<path d="M28.2815 18.6948C28.2815 18.6948 26.9136 18.1228 26.5043 17.3564C26.1964 16.7797 26.251 16.3591 26.2244 15.7059C26.2039 15.2019 26.2987 14.4162 26.2987 14.4162M31.3266 19.0597C31.8118 19.8358 32.0361 20.3738 32.0499 21.2889C32.0668 22.4026 31.868 23.1912 31.0688 23.9671C30.0697 24.9371 28.9579 24.8008 27.572 24.6648C26.4239 24.5521 25.7888 24.2509 24.788 23.6771C22.9897 22.6461 22.1781 21.564 21.2748 19.6984C20.4606 18.0167 20.1501 16.8778 20.2966 15.0152C20.4032 13.6607 20.5782 12.8439 21.2716 11.6755C21.8607 10.6828 22.2688 10.0603 23.2834 9.51003C24.5341 8.83171 25.6526 8.51122 26.9112 9.17466C27.7288 9.60559 28.1699 10.0771 28.4775 10.9486C28.8139 11.9013 28.2642 13.5269 28.2642 13.5269C28.2642 13.5269 28.0459 14.838 28.2877 15.6181C28.6355 16.7402 29.5012 16.9924 30.2787 17.8729C30.6879 18.3364 30.9988 18.5355 31.3266 19.0597Z" stroke="#621E06" stroke-width="1.83554" stroke-linecap="round"/>
</svg>
