<svg width="36" height="36" viewBox="0 0 41 30" fill="none" xmlns="http://www.w3.org/2000/svg">
<g clip-path="url(#clip0_357_14049)">
<path fill-rule="evenodd" clip-rule="evenodd" d="M27.3015 13.4147C27.3015 14.033 27.4757 14.4597 27.9532 14.8342C28.2246 15.0476 28.4351 15.0926 28.7704 15.1709V24.1132C28.7689 24.3947 28.7892 24.5109 28.8923 24.6995C29.0345 24.955 29.3582 25.2409 29.7399 25.2409H37.4499C37.6632 25.2409 37.9172 25.1161 38.0334 25.0116C38.2583 24.8099 38.2525 24.7721 38.3672 24.5326C38.6996 24.7561 38.82 24.4601 39.4485 23.8316C39.7707 23.5094 39.7548 23.4702 39.4354 23.1494L38.5297 22.2452C38.3759 22.0971 38.418 22.1146 38.418 21.7793V15.1709C38.7605 15.0911 38.9216 15.0621 39.2047 14.856C39.5588 14.6005 39.8868 14.1085 39.8868 13.6498C39.8868 13.1926 39.8491 12.9183 39.5835 12.5366C39.299 12.1302 38.7983 11.8138 38.2874 11.8138H28.8995C28.6644 11.8138 28.4351 11.898 28.2711 11.9705C28.0534 12.0678 27.8603 12.2303 27.7123 12.4089C27.48 12.6875 27.3015 13.0112 27.3015 13.4133V13.4147Z" fill="#621E06"/>
<path fill-rule="evenodd" clip-rule="evenodd" d="M29.6353 19.4555C29.6628 19.1753 29.8762 18.8662 29.988 18.6702C30.6469 17.5149 29.9618 16.8298 29.8094 15.9677C29.5917 14.7311 30.5526 14.2144 31.5424 14.3189C32.0606 14.374 32.2899 14.5221 32.4728 14.5395C32.6368 14.3842 32.6557 14.2724 32.9097 14.1186C34.081 13.4088 35.3191 14.6875 36.2683 14.7572C36.5745 14.779 36.8518 14.6658 37.1217 14.7412C37.396 14.8167 37.4483 14.9314 37.5601 15.1723C37.6196 15.1084 37.5833 14.4727 37.5833 14.3334C37.9011 14.3334 38.3061 14.3769 38.5775 14.2521C38.7894 14.1549 38.9897 13.9139 39.0391 13.6367C39.1029 13.2724 38.9375 13.0344 38.7618 12.8645C38.5209 12.6323 38.2698 12.6526 37.8968 12.6526H29.2956C28.9212 12.6526 28.6715 12.6309 28.4306 12.8645C27.9197 13.3566 28.1418 14.0228 28.6178 14.2507C28.8892 14.3813 29.2898 14.3334 29.6091 14.3334L29.6367 19.4569L29.6353 19.4555Z" fill="#F7FEED"/>
<path fill-rule="evenodd" clip-rule="evenodd" d="M37.5635 23.73C37.652 24.0377 37.5185 24.3033 37.2964 24.3802C37.1281 24.4383 31.1627 24.4064 30.8681 24.4035H30.4486H30.0292H29.6097V23.984V23.5645V23.1451C29.6068 22.7924 29.5792 19.9621 29.6344 19.8823L29.6373 19.4584L29.6097 14.3349C29.2904 14.3349 28.8898 14.3814 28.6184 14.2522C28.1423 14.0243 27.9217 13.3596 28.4311 12.8661C28.6721 12.6338 28.9203 12.6542 29.2962 12.6542H37.8973C38.2704 12.6542 38.5215 12.6324 38.7624 12.8661C38.938 13.0359 39.1035 13.2739 39.0396 13.6382C38.9917 13.9154 38.79 14.1564 38.5781 14.2536C38.3066 14.3785 37.9017 14.3349 37.5838 14.3349C37.5838 14.4742 37.6216 15.11 37.5606 15.1738C37.5925 15.4206 37.5766 15.5715 37.5592 15.8168C37.6071 15.8894 37.6042 18.7908 37.5577 18.8692L37.5548 19.1957L37.5838 19.7357C37.5838 19.9911 37.6114 21.1973 37.5635 21.2684C37.6753 21.444 37.8669 21.5558 37.9931 21.7198C38.0338 21.46 38.0062 15.721 38.0018 15.1201C38.0004 14.7878 38.0497 14.7732 38.3632 14.7457C39.1862 14.6731 39.6913 13.8051 39.3676 13.0199C39.2356 12.6977 38.9424 12.4205 38.5897 12.3029C38.1963 12.1708 36.2804 12.2361 35.7202 12.2361H29.8463C29.4007 12.2361 28.8724 12.181 28.4877 12.3465C27.733 12.6716 27.4921 13.6614 27.9855 14.2798C28.241 14.6005 28.4398 14.6847 28.9798 14.7544C29.241 14.7892 29.1902 15.0316 29.1902 15.2769V23.3802C29.1902 23.8316 29.1104 24.4049 29.3833 24.6546C29.6547 24.9027 30.2541 24.8229 30.6852 24.8229C32.6432 24.8229 34.6012 24.8229 36.5591 24.8229C37.0105 24.8229 37.5838 24.9027 37.8335 24.6284C37.9148 24.5399 38.0788 24.2554 37.9612 24.103C37.9031 24.0275 37.6404 23.7735 37.5635 23.7314V23.73Z" fill="#EBECEC"/>
<path fill-rule="evenodd" clip-rule="evenodd" d="M29.6095 23.1435H30.0289V23.563H29.6095V23.9825H30.0289V24.4019H30.4484V23.9825H30.8678V24.4019C31.1639 24.4048 37.1278 24.4368 37.2962 24.3787C37.5197 24.3018 37.6518 24.0376 37.5633 23.7285C37.5023 23.5993 36.1191 22.264 36.0741 22.2379C36.0364 22.3583 35.8738 22.5717 35.7998 22.6472C35.6764 22.7749 35.553 22.8678 35.3963 22.9505C34.643 23.3555 33.9492 23.0913 33.4804 22.4411C33.3309 22.2335 33.045 21.7313 32.8969 21.6094C32.3976 21.1972 31.7097 22.2538 30.698 21.6312C30.2553 21.3583 29.7444 20.6239 29.6312 19.8778C29.5775 19.9577 29.6036 22.7894 29.6065 23.1406L29.6095 23.1435Z" fill="#F7FEED"/>
<path fill-rule="evenodd" clip-rule="evenodd" d="M30.9516 21.2844C30.9008 21.1276 30.7571 20.6762 30.8689 20.5282C30.7499 20.3511 30.6889 20.4062 30.5554 20.0448C30.4843 19.8532 30.4233 19.5992 30.4567 19.3757L30.866 19.3583C30.8631 19.5572 30.882 19.7241 30.9502 19.9113C30.9806 19.994 30.9865 20.0027 31.0344 20.0463C31.1084 19.8503 31.2303 19.7212 31.313 19.5252C31.3958 19.3307 31.4553 19.1043 31.477 18.8692C31.5235 18.3307 31.3566 17.9475 31.1867 17.499C30.5815 15.9054 31.5961 15.2914 32.9038 15.5991C33.0939 15.6441 33.4103 15.8139 33.5714 15.7283C33.7979 15.6064 33.8849 15.1709 34.6426 15.1332C35.1259 15.11 35.5802 15.3204 35.946 15.4961C36.2958 15.6644 36.5773 15.8313 36.962 15.9213C37.1245 15.9591 37.0723 15.917 37.0752 16.02C37.0795 16.0142 37.0853 15.9954 37.0868 15.9997L37.1594 15.5411C37.1681 15.364 37.1753 15.1724 36.9779 15.1419C36.766 15.1085 36.5149 15.2624 35.9184 15.1303C35.0475 14.9387 34.2406 14.1303 33.3537 14.3814C32.927 14.5018 32.9691 14.7312 32.7006 14.8821C32.3827 15.0606 32.1476 14.8676 31.8268 14.7921C31.4988 14.7152 31.1229 14.7007 30.8094 14.8008C30.1287 15.0171 30.0895 15.631 30.3507 16.3466C30.702 17.3103 30.9226 17.9911 30.2738 19.0114C30.0982 19.2886 29.9922 19.4875 30.0575 19.891C30.1417 20.4106 30.6163 21.1334 30.9516 21.2858V21.2844ZM31.0344 20.0463C31.059 20.1682 31.2564 20.2771 31.3827 20.3192C31.5438 20.3743 31.7499 20.4048 31.9313 20.4135L31.8994 20.8199C31.7325 20.8533 31.4785 20.7851 31.329 20.7415C31.001 20.6486 30.9719 20.5615 30.8689 20.5282C30.7557 20.6762 30.9008 21.1276 30.9516 21.2844C31.387 21.6501 32.0678 21.1595 32.4205 21.1044C33.6397 20.9157 33.5352 22.6545 34.6194 22.7126C35.2116 22.7445 35.5904 22.3279 35.7718 21.936C35.7268 21.849 35.5672 21.7111 35.4917 21.6371C35.2899 21.4368 35.3727 21.4643 35.4075 21.2234C35.1129 21.026 34.856 20.5673 34.6426 20.5557C33.9227 20.5165 34.3552 20.7822 33.1447 19.5775L32.1795 18.6036C31.808 18.1725 31.8994 17.5484 32.2579 17.1899C32.615 16.8328 33.2216 16.7443 33.6585 17.0984C33.9053 17.2987 35.5933 19.0245 35.6063 19.0593C35.6412 19.1537 35.6238 19.412 35.6238 19.5238C35.6238 19.83 36.0418 19.9621 36.2914 20.338C36.782 20.2698 36.9083 20.0361 37.052 19.5949C37.4032 18.5034 36.5861 18.0477 36.7065 17.1463C36.7515 16.8082 37.1042 16.2465 37.0766 16.0157C37.0737 15.9126 37.1245 15.9547 36.9634 15.917C36.5788 15.8284 36.2972 15.6615 35.9474 15.4917C35.5831 15.3161 35.1288 15.1042 34.644 15.1289C33.8864 15.1666 33.7993 15.602 33.5729 15.7239C33.4118 15.811 33.0954 15.6398 32.9052 15.5948C31.5975 15.2885 30.583 15.901 31.1882 17.4947C31.358 17.9432 31.5235 18.3263 31.4785 18.8648C31.4582 19.1 31.3972 19.3278 31.3145 19.5209C31.2317 19.7168 31.1098 19.8445 31.0358 20.0419L31.0344 20.0463Z" fill="white"/>
<path fill-rule="evenodd" clip-rule="evenodd" d="M35.8505 20.8155C35.7866 20.6921 35.1436 20.0869 35.0188 19.9635C34.6792 19.6253 32.7705 17.7515 32.5543 17.4975C32.4628 17.5411 32.4193 17.6224 32.383 17.7385C32.3424 17.8677 32.3453 18.0099 32.3888 18.1362C32.4846 18.4192 33.4135 19.2654 33.6472 19.4991C33.7981 19.65 33.9288 19.7806 34.0797 19.9316C34.3816 20.2349 34.2408 20.1188 34.7735 20.1391C34.9578 20.1464 35.0754 20.3206 35.2597 20.5078C35.3729 20.6239 35.5965 20.8765 35.7184 20.9461L35.8505 20.8155ZM32.5543 17.4975C32.7705 17.7501 34.6792 19.6239 35.0188 19.9635C35.1436 20.0883 35.7866 20.6936 35.8505 20.8155L36.0203 20.6602C35.8563 20.3801 35.2249 19.9824 35.206 19.7327C35.1567 19.0622 35.4208 19.4352 34.579 18.5948C34.3497 18.364 33.4904 17.4308 33.2219 17.3306C32.965 17.2348 32.6602 17.3176 32.5557 17.499L32.5543 17.4975Z" fill="#F7FEED"/>
<path fill-rule="evenodd" clip-rule="evenodd" d="M36.1864 21.0899C36.2401 21.2438 37.3707 22.3135 37.5101 22.4542L38.6901 23.6343C38.8526 23.8012 38.7917 23.7808 38.8846 23.7547L39.1661 23.4935C38.6959 23.0493 38.2663 22.595 37.8178 22.1465C37.6378 21.9666 36.5579 20.8533 36.4491 20.8054L36.1864 21.0899ZM38.8846 23.7562C38.7902 23.7823 38.8526 23.8012 38.6901 23.6357L37.5101 22.4557C37.3707 22.3149 36.2401 21.2452 36.1864 21.0914L35.8787 21.3874C35.9237 21.4919 37.0296 22.5675 37.2024 22.7387L38.5522 24.0914L38.886 23.7562H38.8846Z" fill="#F7FEED"/>
<path fill-rule="evenodd" clip-rule="evenodd" d="M30.8711 20.5281C30.9742 20.56 31.0032 20.6486 31.3312 20.7415C31.4807 20.7835 31.7362 20.8532 31.9016 20.8198L31.9336 20.4134C31.7521 20.4047 31.546 20.3742 31.3849 20.3191C31.2587 20.2755 31.0613 20.1681 31.0366 20.0462C30.9887 20.0027 30.9829 19.994 30.9524 19.9112C30.8842 19.724 30.8668 19.5571 30.8682 19.3582L30.4589 19.3757C30.4241 19.5992 30.4865 19.8532 30.5576 20.0448C30.6926 20.4047 30.7521 20.351 30.8711 20.5281Z" fill="#621E06"/>
<path fill-rule="evenodd" clip-rule="evenodd" d="M37.5565 18.8663C37.6044 18.7879 37.6073 15.8865 37.5579 15.8139C37.5245 16.0853 37.4549 16.3408 37.3591 16.5745C37.2647 16.8052 37.1138 17.0331 37.1152 17.319C37.1181 17.7907 37.4766 18.3104 37.555 18.8648L37.5565 18.8663Z" fill="#FEE2C1"/>
<path fill-rule="evenodd" clip-rule="evenodd" d="M34.7202 17.5309L35.0047 17.8285C35.1861 17.6456 36.1978 16.6702 36.2515 16.5512L35.9873 16.2957C35.8741 16.3422 34.8828 17.364 34.7202 17.5309Z" fill="#621E06"/>
<path fill-rule="evenodd" clip-rule="evenodd" d="M37.5614 21.2669C37.6093 21.1958 37.5818 19.9896 37.5818 19.7342L37.5527 19.1942C37.5353 19.4918 37.4482 19.7748 37.3379 20.0187C37.2102 20.2973 37.1202 20.4759 36.8662 20.5746L37.56 21.2683L37.5614 21.2669Z" fill="#FEE2C1"/>
<path fill-rule="evenodd" clip-rule="evenodd" d="M34.0898 16.9024L34.3758 17.1985C34.5296 17.0432 35.1392 16.4801 35.2031 16.3393L34.9404 16.0853C34.8185 16.1361 34.6138 16.3785 34.5122 16.4801C34.3656 16.6266 34.2364 16.7515 34.0913 16.9024H34.0898Z" fill="#621E06"/>
<path fill-rule="evenodd" clip-rule="evenodd" d="M35.3484 18.1609L35.6343 18.457C35.7708 18.3133 36.1859 17.949 36.2512 17.8097L35.987 17.5557C35.8636 17.6065 35.466 18.0404 35.3484 18.1624V18.1609Z" fill="#621E06"/>
<path fill-rule="evenodd" clip-rule="evenodd" d="M30.0288 24.402V23.9826H29.6094V24.402H30.0288Z" fill="#621E06"/>
<path fill-rule="evenodd" clip-rule="evenodd" d="M30.448 24.402H30.8675V23.9826H30.448V24.402Z" fill="#621E06"/>
<path fill-rule="evenodd" clip-rule="evenodd" d="M29.6094 23.5631H30.0288V23.1436H29.6094V23.5631Z" fill="#621E06"/>
<path fill-rule="evenodd" clip-rule="evenodd" d="M16.5863 13.5424C16.2568 13.8414 15.936 14.7137 15.8518 15.3248C15.7967 15.7225 15.817 16.1666 15.817 16.5716C15.817 17.4453 15.8417 17.2508 15.518 17.4584L15.5122 18.261C15.8852 18.5208 15.817 18.3017 15.817 19.3583V23.6661C15.817 24.5138 15.7023 25.6241 16.0434 26.3281C16.325 26.9115 16.8954 27.4224 17.6864 27.5618C18.251 27.6605 28.7376 27.6329 29.0511 27.5458C29.4198 27.2178 29.7231 27.0697 30.0047 26.4805C30.2631 25.942 30.2616 25.4528 30.2616 24.807V17.036C30.2616 15.6485 30.3269 14.8618 29.6984 13.7282C29.5562 13.4728 29.3835 13.3552 29.025 13.4191C27.9117 13.6136 27.6302 13.8298 26.5503 13.6194C25.9857 13.5091 25.4748 13.3509 24.887 13.4641C24.4559 13.5468 23.6489 13.7514 23.228 13.7224C22.7142 13.6876 22.1264 13.4916 21.6009 13.4278C21.1626 13.3741 20.3832 13.57 19.9391 13.6629C19.2758 13.8008 18.91 13.6571 18.2728 13.5337C17.3758 13.361 17.4223 13.4525 16.5863 13.541V13.5424ZM16.5863 13.5424C17.4223 13.4539 17.3758 13.3625 18.2728 13.5352C18.91 13.6586 19.2758 13.8022 19.9391 13.6644C20.3832 13.5715 21.1641 13.3755 21.6009 13.4292C22.1264 13.4931 22.7142 13.6876 23.228 13.7239C23.6475 13.7529 24.4544 13.5482 24.887 13.4655C25.4762 13.3509 25.9857 13.5105 26.5503 13.6208C27.6302 13.8313 27.9117 13.615 29.025 13.4205C29.3849 13.3581 29.5577 13.4742 29.6984 13.7297C30.3269 14.8618 30.2616 15.6499 30.2616 17.0375V24.8084C30.2616 25.4543 30.2631 25.9434 30.0047 26.4819C29.7231 27.0712 29.4183 27.2192 29.0511 27.5472C29.8871 27.4137 30.52 26.7882 30.7667 26.0581C30.9191 25.6052 30.8828 25.0929 30.8828 24.5965C30.8828 24.3309 30.877 24.058 30.8814 23.7924C30.8872 23.402 30.967 23.4847 31.1905 23.3294L31.1847 22.5268C30.906 22.3482 30.8799 22.444 30.8814 21.9796L30.8828 16.065C30.8828 14.9257 30.6012 14.1477 30.0642 13.4452C29.6549 12.9096 29.5431 12.6948 29.0613 12.779C28.6012 12.8588 28.1149 12.9619 27.6519 13.0562C26.6301 13.2667 26.0844 12.5947 24.7113 12.8632C22.8666 13.2231 23.6518 13.1825 21.8448 12.8356C20.6749 12.6121 20.1248 13.271 18.9477 13.0373C18.5544 12.959 17.8882 12.7877 17.521 12.7616C17.1813 12.7384 17.1073 12.8661 16.9578 13.0504C16.8345 13.2028 16.6719 13.3494 16.5863 13.5424Z" fill="white"/>
<path fill-rule="evenodd" clip-rule="evenodd" d="M18.0965 15.6587C17.0021 15.7951 17.0588 16.8053 17.0602 17.4164V23.0755C17.0602 23.9855 16.886 24.9594 17.5261 25.4341C18.037 25.8129 19.4014 25.6677 20.1387 25.6677C21.265 25.6677 28.1389 25.72 28.6266 25.6532C29.7021 25.5066 29.6368 24.4993 29.6368 23.8767V18.2176C29.6368 17.2074 29.8153 16.3844 29.152 15.875C28.6789 15.5121 27.2521 15.6471 26.5569 15.6471L18.0951 15.6573L18.0965 15.6587Z" fill="#621E06"/>
<path fill-rule="evenodd" clip-rule="evenodd" d="M18.094 16.3162C17.6992 16.4497 17.692 16.6964 17.6934 17.1638C17.6963 18.113 17.6528 24.4079 17.7181 24.6561C17.8197 25.032 18.1811 25.0378 18.6194 25.0363C19.7124 25.0334 28.3585 25.0958 28.6502 24.9986C29.016 24.8781 29.0073 24.5675 29.0058 24.1321C29.0029 23.1974 29.0523 16.8779 28.9739 16.6485C28.852 16.2886 28.5037 16.2813 28.0784 16.2828C27.0174 16.2857 18.3538 16.2291 18.0926 16.3176L18.094 16.3162Z" fill="#F7FEED"/>
<path fill-rule="evenodd" clip-rule="evenodd" d="M15.5163 17.4584C15.84 17.2509 15.8168 17.4453 15.8153 16.5716C15.8153 16.1681 15.7964 15.7225 15.8501 15.3248C15.9343 14.7138 16.2565 13.84 16.5846 13.5425C16.6687 13.3509 16.8313 13.2028 16.9561 13.0504C17.1056 12.8661 17.1796 12.7384 17.5193 12.7616C17.8865 12.7877 18.5527 12.959 18.946 13.0374C20.1231 13.271 20.6732 12.6121 21.8431 12.8356C23.6501 13.1825 22.8649 13.2231 24.7096 12.8632C26.0827 12.5961 26.627 13.2681 27.6502 13.0562C28.1132 12.9604 28.5995 12.8574 29.0596 12.779C29.5429 12.6948 29.6532 12.9096 30.0625 13.4452C30.5995 14.1463 30.8811 14.9242 30.8811 16.065L30.8797 21.9796C30.8782 22.4441 30.9043 22.3483 31.183 22.5268C31.6504 22.4382 31.5415 22.0478 31.5415 21.5137V17.3336C31.5415 16.3626 31.5792 15.4685 31.3818 14.7065C31.0843 13.5555 30.6997 13.3407 30.4442 12.8574C30.6866 12.7935 30.8898 12.4786 30.8158 12.107C30.7664 11.8632 30.4776 11.644 30.3078 11.4742C30.1162 11.2826 29.913 11.1012 29.7345 10.9081C29.5777 10.7383 29.643 10.2651 29.643 9.86019C29.7795 9.79488 29.8158 9.80649 29.958 9.70924C30.6416 9.24333 30.4834 8.66567 30.4878 7.91673C30.4907 7.326 30.3397 6.96459 29.7983 6.70479C29.688 6.65109 29.5095 6.62206 29.3034 6.60754H27.6067C27.4514 6.62351 27.3585 6.68592 27.3266 6.90364C27.3803 7.18376 27.5152 7.24182 27.823 7.24327C28.1089 7.24327 28.3963 7.24182 28.6836 7.24037C29.4921 7.24037 29.8637 7.13877 29.8593 8.043C29.8564 8.80936 29.9638 9.25495 29.0944 9.25204L21.1536 9.25349C20.7284 9.25349 17.4133 9.30429 17.2827 9.20995C16.7689 9.2056 16.8429 8.55681 16.84 8.08655C16.8371 7.47114 16.9256 7.24182 17.5628 7.24037L25.2931 7.24182C26.1103 7.24182 26.3991 7.35938 26.4876 6.90364C26.4426 6.68302 26.3643 6.62206 26.2162 6.60754H17.5788C17.065 6.609 16.6963 6.64238 16.3639 7.18086C16.1462 7.53501 16.1912 8.3986 16.2115 8.84709C16.2275 9.21576 16.4742 9.52636 16.7428 9.70924C16.8836 9.80649 16.9198 9.79342 17.0577 9.86019C17.0577 11.0518 17.2116 10.657 16.393 11.4756C16.2232 11.6469 15.9329 11.8646 15.885 12.1084C15.8095 12.48 16.0141 12.7935 16.2565 12.8588C16.1665 13.0287 16.0664 13.1303 15.9604 13.2812C15.3291 14.1767 15.1578 15.1593 15.1593 16.2798C15.1593 16.859 15.0228 17.3699 15.5192 17.4628L15.5163 17.4584Z" fill="#621E06"/>
<path fill-rule="evenodd" clip-rule="evenodd" d="M23.7869 18.2785C23.0046 18.1609 22.6402 18.1464 22.0379 18.5542C20.7548 19.4222 20.1133 22.4716 20.7955 23.1814C21.4443 23.8578 23.5575 23.2743 24.2615 22.9303C24.755 22.6894 25.1991 22.3338 25.4386 21.997C25.9161 21.325 25.7884 21.0884 25.7507 20.2466C26.0801 20.0971 26.1832 20.0986 26.3907 19.8678C26.8363 19.3729 26.9698 19.1856 26.3806 18.6079C25.993 18.2277 25.8697 18.3525 25.7594 18.2146C25.681 18.1174 25.7071 17.9156 25.3675 17.5934C25.2659 17.4962 24.9495 17.216 24.7477 17.2262C24.5184 17.2378 23.8682 17.7473 23.7854 18.277L23.7869 18.2785Z" fill="#621E06"/>
<path fill-rule="evenodd" clip-rule="evenodd" d="M17.2815 9.20704C17.5776 9.12867 28.0874 9.18237 28.7159 9.18092C28.9017 8.9066 28.8567 8.57858 28.8567 8.20991C28.8567 7.70917 28.893 7.61483 28.684 7.23746C28.398 7.23891 28.1106 7.24036 27.8233 7.24036C27.5156 7.24036 27.3791 7.18085 27.3269 6.90073H26.4865C26.398 7.35647 26.1091 7.23891 25.292 7.23891L17.5617 7.23746C16.9245 7.23891 16.836 7.46823 16.8389 8.08364C16.8418 8.5539 16.7677 9.20269 17.2815 9.20704Z" fill="#F7FEED"/>
<path fill-rule="evenodd" clip-rule="evenodd" d="M31.1903 23.3295C30.9667 23.4833 30.8869 23.4006 30.8811 23.7925C30.8767 24.0581 30.8825 24.331 30.8825 24.5966C30.8825 25.093 30.9188 25.6053 30.7664 26.0582C30.5197 26.7882 29.8869 27.4123 29.0508 27.5473C28.7359 27.6344 18.2493 27.662 17.6862 27.5633C16.8952 27.4254 16.3247 26.9145 16.0432 26.3296C15.7021 25.6256 15.8167 24.5153 15.8167 23.6677V19.3598C15.8167 18.3017 15.885 18.5209 15.5119 18.2625C15.2275 18.3743 15.152 18.3627 15.1563 18.8939C15.1665 20.4687 15.0722 24.9507 15.2173 25.8462C15.3857 26.8898 16.1303 27.6881 16.9968 28.0364C17.3378 28.1729 17.6122 28.2164 17.9329 28.2295H18.7893H28.8723C29.4224 28.2077 29.9507 27.9581 30.2817 27.7302C30.6619 27.4675 30.9929 27.0916 31.2048 26.6692C31.6344 25.8114 31.5357 25.0393 31.5429 24.0073C31.5473 23.4398 31.4921 23.4543 31.1903 23.3324V23.3295Z" fill="#621E06"/>
<path fill-rule="evenodd" clip-rule="evenodd" d="M29.6416 12.2158C29.5922 12.0634 28.8132 11.6817 28.6957 11.5641C28.5491 11.4175 28.4093 10.8845 28.2902 10.7263L18.1281 10.8074C17.6854 10.803 17.7927 10.8382 17.5605 11.0776C17.3617 11.2823 16.6392 12.0736 16.5144 12.2724C17.2677 12.2362 17.1574 12.0359 18.0384 12.2158C18.4143 12.2928 19.2678 12.5148 19.6103 12.4524C21.5828 12.0925 20.8629 12.0039 22.741 12.3697C24.2491 12.6629 24.4218 11.9343 25.8906 12.2173C26.2825 12.2928 27.1026 12.5177 27.464 12.451C27.9429 12.3639 29.1612 12.3407 29.6416 12.2158Z" fill="#F7FEED"/>
<path fill-rule="evenodd" clip-rule="evenodd" d="M21.1899 21.6835C21.4715 21.7662 21.6123 21.8461 21.9461 21.9085C22.1188 21.9404 22.1391 21.9361 22.1958 21.8896C22.0288 21.6545 22.0042 21.5616 22.2059 21.3439C22.74 20.7662 23.0797 21.2771 22.8692 21.5834C22.8126 21.6661 22.5847 21.8795 22.4672 21.9332C22.7531 22.0783 23.5833 21.8722 23.9128 21.7837C24.3221 21.6734 24.8635 21.5093 25.1146 21.2176C25.402 20.6066 24.8867 19.8663 24.6312 19.5543C24.3787 19.2437 23.6951 18.769 23.0071 18.8402C21.9476 18.9505 21.3017 20.4687 21.187 21.6835H21.1899Z" fill="white"/>
<path fill-rule="evenodd" clip-rule="evenodd" d="M28.3485 10.2366C28.4182 10.1271 28.3834 9.99788 28.3834 9.88202H17.6936V10.2345L28.3485 10.2359V10.2366Z" fill="#621E06"/>
<path fill-rule="evenodd" clip-rule="evenodd" d="M17.2815 9.20705C17.4136 9.30284 20.7272 9.25059 21.1524 9.25059L29.0932 9.24914C29.9626 9.25204 29.8552 8.80645 29.8581 8.0401C29.8624 7.13586 29.4909 7.23746 28.6824 7.23746C28.8914 7.61338 28.8552 7.70772 28.8552 8.20992C28.8552 8.58003 28.9001 8.90805 28.7144 9.18092C28.0859 9.18237 17.5761 9.12722 17.28 9.20705H17.2815Z" fill="#F7FEED"/>
<path fill-rule="evenodd" clip-rule="evenodd" d="M22.4684 21.9331L22.1969 21.8895C22.1389 21.9345 22.1186 21.9403 21.9473 21.9084C21.612 21.846 21.4727 21.7662 21.1911 21.6834C21.1534 22.0797 21.1737 22.3874 21.2361 22.7546C21.9328 22.9752 22.9502 22.7691 23.599 22.5238C24.2318 22.2843 24.975 21.8329 25.1158 21.2175C24.8661 21.5078 24.3233 21.6718 23.914 21.7836C23.5831 21.8721 22.7543 22.0797 22.4684 21.9331Z" fill="#E3A300"/>
<path fill-rule="evenodd" clip-rule="evenodd" d="M29.0016 12.1447C29.4922 12.075 29.7244 12.2492 30.1816 12.2724C30.0771 12.0982 29.6141 11.6788 29.4356 11.4988C29.0887 11.149 29.0409 10.6964 28.0742 10.6993C28.1932 10.8575 28.4384 11.5278 28.585 11.6744C28.7026 11.792 28.9508 11.9937 29.0016 12.1461V12.1447Z" fill="#F7FEED"/>
<path fill-rule="evenodd" clip-rule="evenodd" d="M18.6094 22.341C18.3525 22.4687 18.3699 22.8461 18.6456 22.9201C18.7777 22.9564 19.441 22.9521 19.5528 22.91C19.8068 22.8142 19.7952 22.4179 19.5354 22.3294C19.3888 22.2801 18.7226 22.2859 18.6094 22.341Z" fill="#621E06"/>
<path fill-rule="evenodd" clip-rule="evenodd" d="M27.1409 22.341C26.8869 22.4702 26.9029 22.8432 27.1772 22.9187C27.3078 22.955 27.9726 22.9506 28.0843 22.91C28.3398 22.8157 28.3282 22.4151 28.0655 22.328C27.9189 22.2786 27.2527 22.2844 27.1409 22.341Z" fill="#621E06"/>
<path fill-rule="evenodd" clip-rule="evenodd" d="M28.2466 24.1466C28.309 23.7344 28.1595 23.6705 27.7865 23.6676C27.534 23.6662 27.0956 23.5791 26.9911 23.8505C26.8532 24.2076 27.1595 24.3019 27.4454 24.3034C27.8765 24.3048 27.9505 24.3672 28.2481 24.1451L28.2466 24.1466Z" fill="#621E06"/>
<path fill-rule="evenodd" clip-rule="evenodd" d="M18.4527 24.148C18.7387 24.3599 18.7721 24.3033 19.296 24.3033C19.8853 24.3033 19.9129 23.6705 19.296 23.6705C18.7053 23.6705 18.3686 23.5877 18.4527 24.148Z" fill="#621E06"/>
<path fill-rule="evenodd" clip-rule="evenodd" d="M22.9159 19.5949C22.3324 19.8765 22.4181 20.6051 22.9449 20.3975C23.0611 20.3525 23.3252 20.0898 23.3513 19.9418C23.3992 19.6791 23.1539 19.4802 22.9145 19.5949H22.9159Z" fill="#621E06"/>
<path fill-rule="evenodd" clip-rule="evenodd" d="M22.197 21.8897L22.4684 21.9332C22.586 21.8781 22.8139 21.6662 22.8705 21.5834C23.0824 21.2772 22.7413 20.7663 22.2072 21.3439C22.004 21.5631 22.0301 21.6545 22.197 21.8897Z" fill="#621E06"/>
<path fill-rule="evenodd" clip-rule="evenodd" d="M23.6021 21.3627C23.8198 21.5267 23.9112 21.6138 24.1478 21.3845C24.2581 21.2771 24.5049 21.1073 24.4294 20.8576C24.3481 20.592 24.0375 20.6167 23.8807 20.7792C23.724 20.9432 23.5513 21.0013 23.6006 21.3627H23.6021Z" fill="#621E06"/>
<path fill-rule="evenodd" clip-rule="evenodd" d="M28.3484 10.615L29.0015 10.6135L29.0044 9.88782L28.3832 9.88202C28.3832 10.1215 28.4166 10.3886 28.3484 10.615Z" fill="#86776F"/>
<path fill-rule="evenodd" clip-rule="evenodd" d="M24.7856 18.8213C25.2762 18.5774 25.1688 18.129 24.7319 17.9229C24.6318 18.0274 24.4126 18.2102 24.4126 18.3873C24.4126 18.6036 24.6361 18.7342 24.7856 18.8198V18.8213Z" fill="#F7FEED"/>
<path fill-rule="evenodd" clip-rule="evenodd" d="M25.2507 19.2727C25.5352 19.9128 25.9764 19.4715 26.0868 19.2219C25.9416 19.0811 25.885 18.9737 25.6716 18.8866C25.4772 18.9838 25.4162 19.1754 25.2507 19.2741V19.2727Z" fill="#F7FEED"/>
<path fill-rule="evenodd" clip-rule="evenodd" d="M8.1636 10.1171C8.30874 10.313 8.48001 10.3827 8.35809 10.7281C8.29133 10.9183 8.14909 11.1984 8.06781 11.3798C7.87622 11.808 7.70785 12.2071 7.554 12.689C7.27243 13.5729 7.01552 14.8008 7.02133 15.8038L15.2103 15.7559C15.1232 14.1187 14.7995 12.8283 14.2131 11.4872C13.6384 10.1708 13.1855 9.03721 12.9998 7.43338L11.7733 7.43628L9.25217 7.4537C9.15202 7.70189 9.11283 8.22005 9.05333 8.50163C8.96479 8.924 8.95753 9.19251 8.47421 9.17219C8.1099 8.99947 8.18973 8.79337 8.28842 8.31149C8.56855 6.93844 8.52646 6.34771 8.52646 4.89484C8.07216 4.78743 7.90234 4.32443 7.90234 3.74676C7.90234 3.17925 7.82542 2.44193 8.02136 2.03553C8.2086 1.64945 8.54242 1.56526 8.87625 1.55075H9.30297H12.8778H13.097C13.6631 1.55365 13.9853 1.58849 14.2015 2.04424C14.3844 2.43322 14.4033 4.05591 14.2117 4.46086C14.1203 4.65535 13.9171 4.83678 13.7066 4.89338C13.7066 6.10097 13.6558 6.65106 13.8474 7.83397C14.3423 10.895 15.5339 11.268 15.9432 15.1216C16.0419 16.0461 15.9868 22.9215 15.9868 24.4267C15.9868 26.2206 16.3714 27.7243 15.1392 28.2207C15.055 28.2555 14.8169 28.2773 14.4889 28.2918H10.5454H7.41176C7.11857 28.2715 7.10551 28.1568 6.77894 28.1975C6.48285 28.2352 6.21724 28.273 5.95163 28.2918H5.31881C5.11125 28.2759 4.89209 28.2396 4.6497 28.1786C3.42615 27.8666 2.33032 27.2352 1.53784 26.2482C1.46382 26.1539 1.42173 26.1292 1.3448 26.0247C0.420241 24.7881 0.00368161 23.4339 0.132859 21.8693C0.196721 21.0826 0.341864 21.0492 0.442012 20.6138C0.308481 20.5659 0.240264 20.4512 0.243167 20.3017C0.250424 19.7937 1.00371 18.9795 1.33609 18.6413C2.25339 17.708 4.06042 17.1434 5.36525 17.1144C5.33622 15.8168 4.043 16.0171 3.85722 15.6528C3.36519 14.6905 5.76294 14.9111 6.11128 16.7283C6.16208 16.9954 6.0808 16.9925 6.24627 17.1144C6.24627 16.3843 6.2303 15.618 6.29271 14.9677C6.36093 14.2551 6.47269 13.6948 6.62944 13.0606C6.81668 12.3 7.19695 11.3305 7.54094 10.6367C7.69334 10.3304 7.69479 10.1142 8.16215 10.1142L8.1636 10.1171Z" fill="#621E06"/>
<path fill-rule="evenodd" clip-rule="evenodd" d="M11.59 25.5021L10.5435 25.492C10.6959 25.3396 11.0065 24.6429 11.1023 24.3613C11.8846 22.0666 11.1125 20.8692 11.1473 20.6805C11.1879 20.457 11.4202 20.5107 11.2083 19.9998C10.6175 18.5759 8.94548 17.4612 7.01073 17.2203L7.00928 16.5802L15.2214 16.5744V25.1131L12.2025 25.1117C11.8396 25.1117 11.6509 25.1538 11.59 25.4992V25.5021Z" fill="white"/>
<path fill-rule="evenodd" clip-rule="evenodd" d="M6.55832 27.4384C6.40447 27.2831 6.05177 27.1278 5.87035 27.0015C5.23317 26.5559 4.66131 25.9608 4.24039 25.2511C3.71207 24.3584 3.1736 22.817 3.53645 21.563C3.57564 21.4672 3.96317 21.1159 4.12283 21.0071C4.33764 21.2422 4.69324 23.325 5.78181 23.3207C6.30287 23.3192 6.65847 22.8214 6.86022 22.4367C6.9952 22.1813 7.36532 21.0985 7.43934 21.0056C7.6077 21.1668 8.41325 21.9476 8.82835 21.8707C9.48295 21.7488 9.07219 20.5963 8.99237 20.0724C9.13606 20.1188 10.094 20.4889 10.1564 20.5412C10.3524 20.7052 10.5599 21.367 10.6209 21.6878C10.811 22.6806 10.5817 23.7111 10.2159 24.5094C9.62083 25.807 8.30149 27.1989 6.55977 27.4384H6.55832ZM3.535 21.5615C3.1736 22.817 3.71062 24.357 4.23894 25.2496C4.65986 25.9594 5.23317 26.5559 5.8689 27C6.05032 27.1263 6.40302 27.2816 6.55687 27.4369C5.60909 27.7374 4.33038 27.3295 3.55677 26.9289C1.98052 26.1118 0.780194 24.116 0.886148 22.1798C0.916628 21.6239 1.06612 21.0898 1.294 20.6892C1.43334 20.441 2.27952 20.1667 2.57125 20.0709C2.50449 20.5122 2.27807 21.0898 2.41015 21.5557C2.61189 22.2713 3.2839 21.6399 3.53355 21.5586L3.535 21.5615Z" fill="white"/>
<path fill-rule="evenodd" clip-rule="evenodd" d="M15.21 15.7559C14.5148 15.798 10.0023 15.8415 9.57705 15.7312C9.64237 14.1419 9.99071 12.7848 10.5437 11.4742C11.0865 10.1897 11.6221 9.03144 11.7731 7.43778L12.9995 7.43488C13.1853 9.0387 13.6381 10.1723 14.2129 11.4887C14.7993 12.8298 15.123 14.1201 15.21 15.7574V15.7559ZM15.21 15.7559L7.02109 15.8038C7.01529 14.8009 7.27364 13.5744 7.55377 12.689C7.70617 12.2072 7.87598 11.808 8.06757 11.3799C8.14885 11.1984 8.29109 10.9183 8.35786 10.7282C8.47978 10.3827 8.30996 10.3131 8.16337 10.1171C8.1982 9.96326 8.27077 9.82247 8.32592 9.65411C8.36802 9.52783 8.42027 9.2898 8.47397 9.17223C8.9573 9.19255 8.96455 8.92404 9.05309 8.50167C9.1126 8.2201 9.15179 7.70194 9.25193 7.45374L11.7731 7.43633C11.6207 9.02999 11.0865 10.1882 10.5437 11.4727C9.99071 12.7834 9.64237 14.1405 9.57705 15.7298C10.0023 15.8401 14.5148 15.7965 15.21 15.7545V15.7559Z" fill="white"/>
<path fill-rule="evenodd" clip-rule="evenodd" d="M4.30085 19.8503C4.46196 19.4628 4.89884 18.9693 5.15284 18.6805C5.31975 18.4903 5.43587 18.3321 5.62455 18.1608C5.95983 17.8546 5.89887 18.0941 6.34011 17.9693C7.08614 17.8183 8.70883 18.4134 9.42729 18.9765C9.96867 19.4004 9.85401 19.4091 10.1066 19.6602C9.68129 19.5876 8.59272 18.9606 8.31985 18.9678C7.8641 18.9809 7.95554 19.4337 8.07166 19.7676C8.17906 20.0753 8.28356 20.4207 8.35033 20.7574C7.8133 20.4135 7.08614 19.1028 6.77553 20.4164C6.62313 21.0579 6.20222 22.3656 5.77985 22.5427C5.44603 22.3816 5.18332 21.6893 5.02802 21.2175C4.69854 20.2088 4.81901 19.8953 4.30085 19.8503ZM4.30085 19.8503C3.84946 19.9925 3.59546 20.5354 3.21083 20.7545C3.28485 20.4323 3.36468 20.1232 3.47789 19.8097C4.09475 18.097 2.1092 19.5687 1.45605 19.6558C1.57217 19.5586 1.66361 19.3858 1.82617 19.2407C2.29353 18.8212 2.77685 18.5164 3.42274 18.29C3.94235 18.1086 5.86259 17.6833 6.34156 17.9678C5.90032 18.0912 5.96273 17.8531 5.626 18.1594C5.43732 18.3307 5.3212 18.4889 5.15429 18.679C4.90029 18.9693 4.46341 19.4613 4.3023 19.8489L4.30085 19.8503Z" fill="#F7FEED"/>
<path fill-rule="evenodd" clip-rule="evenodd" d="M9.71337 27.5211C9.61757 27.2149 9.58129 27.1481 9.55371 26.7562C9.63499 26.6024 9.90641 26.3818 10.0617 26.1829C10.2344 25.9594 10.4159 25.7606 10.545 25.4921L11.5915 25.5022C11.7091 26.0407 12.2447 25.8883 13.191 25.8883C13.8688 25.8883 14.5452 25.8883 15.223 25.8883C15.223 27.8317 15.2128 27.5226 13.294 27.5226C12.101 27.5226 10.9079 27.5255 9.71337 27.5226V27.5211Z" fill="white"/>
<path fill-rule="evenodd" clip-rule="evenodd" d="M13.529 2.64801C13.529 3.16907 13.5522 3.64369 13.4956 4.14733C13.2706 4.21555 9.72916 4.22135 8.99184 4.19233C8.55496 4.17636 8.69865 3.87446 8.69865 2.64656C8.69865 2.29967 8.74074 2.32144 9.09199 2.32144H13.1894C13.5072 2.32144 13.529 2.33595 13.529 2.64656V2.64801Z" fill="white"/>
<path fill-rule="evenodd" clip-rule="evenodd" d="M12.9283 6.42605L12.9182 6.65828L9.31139 6.66119L9.29688 6.39558C9.43911 6.10239 9.36219 5.36651 9.36219 4.9935L12.863 4.98334C12.863 5.42747 12.7876 6.03998 12.9283 6.4246V6.42605Z" fill="#F7FEED"/>
<path fill-rule="evenodd" clip-rule="evenodd" d="M9.713 27.5212L8.5896 27.5183C8.6941 27.3993 8.92343 27.2643 9.05841 27.1598C9.24855 27.0117 9.36031 26.8855 9.5519 26.7563C9.57947 27.1467 9.61576 27.2149 9.71155 27.5212H9.713Z" fill="white"/>
<path fill-rule="evenodd" clip-rule="evenodd" d="M12.9283 6.42607C12.7876 6.04144 12.863 5.42894 12.863 4.9848L9.36219 4.99496C9.36219 5.36798 9.43911 6.10385 9.29688 6.39704L9.31284 4.96738C9.6249 4.91223 12.6613 4.90788 12.9051 4.97319L12.9283 6.42752V6.42607Z" fill="#888F8C"/>
</g>
<defs>
<clipPath id="clip0_357_14049">
<rect width="40" height="28.5713" fill="white" transform="translate(0.290527 0.726349)"/>
</clipPath>
</defs>
</svg>
